<mxfile host="app.diagrams.net" modified="2023-11-20T18:18:21.936Z" agent="Mozilla/5.0 (Macintosh; Intel Mac OS X 10_15_7) AppleWebKit/537.36 (KHTML, like Gecko) Chrome/119.0.0.0 Safari/537.36" etag="XwTOTjrFeUBIKDqmAVwP" version="22.1.3" type="github">
  <diagram name="Page-1" id="kxCD_fNDWD3sTU2WMVlh">
    <mxGraphModel dx="939" dy="686" grid="1" gridSize="10" guides="1" tooltips="1" connect="1" arrows="1" fold="1" page="1" pageScale="1" pageWidth="850" pageHeight="1100" math="0" shadow="0">
      <root>
        <mxCell id="0" />
        <mxCell id="1" parent="0" />
        <mxCell id="uRmLgOpoL4X1B9jV7of--2" value="&lt;b style=&quot;font-size: 21px;&quot;&gt;&lt;font style=&quot;font-size: 21px;&quot;&gt;PacMan&lt;br&gt;Adele Hurley&lt;/font&gt;&lt;/b&gt;" style="text;html=1;strokeColor=none;fillColor=none;align=center;verticalAlign=middle;whiteSpace=wrap;rounded=0;" parent="1" vertex="1">
          <mxGeometry x="45" y="50" width="760" height="30" as="geometry" />
        </mxCell>
        <mxCell id="uRmLgOpoL4X1B9jV7of--4" value="PacMan" style="swimlane;fontStyle=1;align=center;verticalAlign=top;childLayout=stackLayout;horizontal=1;startSize=26;horizontalStack=0;resizeParent=1;resizeParentMax=0;resizeLast=0;collapsible=1;marginBottom=0;whiteSpace=wrap;html=1;" parent="1" vertex="1">
          <mxGeometry x="370" y="340" width="160" height="470" as="geometry" />
        </mxCell>
        <mxCell id="uRmLgOpoL4X1B9jV7of--5" value="+ puck1: puck&lt;br&gt;+score: int&lt;br&gt;+play: boolean&lt;br&gt;+food1: food&lt;br&gt;+ghost1: ghost&lt;br&gt;+walls&lt;br&gt;+&lt;br&gt;+&lt;br&gt;+&lt;br&gt;+&lt;br&gt;+&lt;br&gt;+&lt;br&gt;+&lt;br&gt;+" style="text;strokeColor=none;fillColor=none;align=left;verticalAlign=top;spacingLeft=4;spacingRight=4;overflow=hidden;rotatable=0;points=[[0,0.5],[1,0.5]];portConstraint=eastwest;whiteSpace=wrap;html=1;" parent="uRmLgOpoL4X1B9jV7of--4" vertex="1">
          <mxGeometry y="26" width="160" height="264" as="geometry" />
        </mxCell>
        <mxCell id="uRmLgOpoL4X1B9jV7of--6" value="" style="line;strokeWidth=1;fillColor=none;align=left;verticalAlign=middle;spacingTop=-1;spacingLeft=3;spacingRight=3;rotatable=0;labelPosition=right;points=[];portConstraint=eastwest;strokeColor=inherit;" parent="uRmLgOpoL4X1B9jV7of--4" vertex="1">
          <mxGeometry y="290" width="160" height="8" as="geometry" />
        </mxCell>
        <mxCell id="uRmLgOpoL4X1B9jV7of--7" value="+ keyPressed(): void&lt;br&gt;+ramdom():&lt;br&gt;+display():void&lt;br&gt;+move(dir:char):void&lt;br&gt;+" style="text;strokeColor=none;fillColor=none;align=left;verticalAlign=top;spacingLeft=4;spacingRight=4;overflow=hidden;rotatable=0;points=[[0,0.5],[1,0.5]];portConstraint=eastwest;whiteSpace=wrap;html=1;" parent="uRmLgOpoL4X1B9jV7of--4" vertex="1">
          <mxGeometry y="298" width="160" height="172" as="geometry" />
        </mxCell>
        <mxCell id="uRmLgOpoL4X1B9jV7of--8" value="Puck" style="swimlane;fontStyle=1;align=center;verticalAlign=top;childLayout=stackLayout;horizontal=1;startSize=26;horizontalStack=0;resizeParent=1;resizeParentMax=0;resizeLast=0;collapsible=1;marginBottom=0;whiteSpace=wrap;html=1;" parent="1" vertex="1">
          <mxGeometry x="45" y="502" width="160" height="130" as="geometry" />
        </mxCell>
        <mxCell id="uRmLgOpoL4X1B9jV7of--9" value="+ x,y,w,h: int&lt;br&gt;+c1: color&lt;br&gt;+lives: int&lt;br&gt;+" style="text;strokeColor=none;fillColor=none;align=left;verticalAlign=top;spacingLeft=4;spacingRight=4;overflow=hidden;rotatable=0;points=[[0,0.5],[1,0.5]];portConstraint=eastwest;whiteSpace=wrap;html=1;" parent="uRmLgOpoL4X1B9jV7of--8" vertex="1">
          <mxGeometry y="26" width="160" height="54" as="geometry" />
        </mxCell>
        <mxCell id="uRmLgOpoL4X1B9jV7of--10" value="" style="line;strokeWidth=1;fillColor=none;align=left;verticalAlign=middle;spacingTop=-1;spacingLeft=3;spacingRight=3;rotatable=0;labelPosition=right;points=[];portConstraint=eastwest;strokeColor=inherit;" parent="uRmLgOpoL4X1B9jV7of--8" vertex="1">
          <mxGeometry y="80" width="160" height="8" as="geometry" />
        </mxCell>
        <mxCell id="uRmLgOpoL4X1B9jV7of--11" value="+ display(): void&lt;br&gt;+move(dir: char): void" style="text;strokeColor=none;fillColor=none;align=left;verticalAlign=top;spacingLeft=4;spacingRight=4;overflow=hidden;rotatable=0;points=[[0,0.5],[1,0.5]];portConstraint=eastwest;whiteSpace=wrap;html=1;" parent="uRmLgOpoL4X1B9jV7of--8" vertex="1">
          <mxGeometry y="88" width="160" height="42" as="geometry" />
        </mxCell>
        <mxCell id="uRmLgOpoL4X1B9jV7of--12" value="Map" style="swimlane;fontStyle=1;align=center;verticalAlign=top;childLayout=stackLayout;horizontal=1;startSize=26;horizontalStack=0;resizeParent=1;resizeParentMax=0;resizeLast=0;collapsible=1;marginBottom=0;whiteSpace=wrap;html=1;" parent="1" vertex="1">
          <mxGeometry x="310" y="130" width="160" height="180" as="geometry" />
        </mxCell>
        <mxCell id="uRmLgOpoL4X1B9jV7of--13" value="&lt;span style=&quot;background-color: initial;&quot;&gt;+ background(): &lt;br&gt;&lt;/span&gt;&lt;span style=&quot;background-color: initial;&quot;&gt;+fill(): color&lt;/span&gt;&lt;span style=&quot;background-color: initial;&quot;&gt;&lt;br&gt;&lt;/span&gt;&lt;div&gt;+&amp;nbsp;&lt;/div&gt;" style="text;strokeColor=none;fillColor=none;align=left;verticalAlign=top;spacingLeft=4;spacingRight=4;overflow=hidden;rotatable=0;points=[[0,0.5],[1,0.5]];portConstraint=eastwest;whiteSpace=wrap;html=1;" parent="uRmLgOpoL4X1B9jV7of--12" vertex="1">
          <mxGeometry y="26" width="160" height="104" as="geometry" />
        </mxCell>
        <mxCell id="uRmLgOpoL4X1B9jV7of--14" value="" style="line;strokeWidth=1;fillColor=none;align=left;verticalAlign=middle;spacingTop=-1;spacingLeft=3;spacingRight=3;rotatable=0;labelPosition=right;points=[];portConstraint=eastwest;strokeColor=inherit;" parent="uRmLgOpoL4X1B9jV7of--12" vertex="1">
          <mxGeometry y="130" width="160" height="8" as="geometry" />
        </mxCell>
        <mxCell id="uRmLgOpoL4X1B9jV7of--15" value="+setup():void" style="text;strokeColor=none;fillColor=none;align=left;verticalAlign=top;spacingLeft=4;spacingRight=4;overflow=hidden;rotatable=0;points=[[0,0.5],[1,0.5]];portConstraint=eastwest;whiteSpace=wrap;html=1;" parent="uRmLgOpoL4X1B9jV7of--12" vertex="1">
          <mxGeometry y="138" width="160" height="42" as="geometry" />
        </mxCell>
        <mxCell id="uRmLgOpoL4X1B9jV7of--16" value="Ghost" style="swimlane;fontStyle=1;align=center;verticalAlign=top;childLayout=stackLayout;horizontal=1;startSize=26;horizontalStack=0;resizeParent=1;resizeParentMax=0;resizeLast=0;collapsible=1;marginBottom=0;whiteSpace=wrap;html=1;" parent="1" vertex="1">
          <mxGeometry x="660" y="350" width="160" height="180" as="geometry" />
        </mxCell>
        <mxCell id="uRmLgOpoL4X1B9jV7of--17" value="+random(color); color&lt;br&gt;+x,y,w,h:int&lt;br&gt;+reset:in&lt;br&gt;" style="text;strokeColor=none;fillColor=none;align=left;verticalAlign=top;spacingLeft=4;spacingRight=4;overflow=hidden;rotatable=0;points=[[0,0.5],[1,0.5]];portConstraint=eastwest;whiteSpace=wrap;html=1;" parent="uRmLgOpoL4X1B9jV7of--16" vertex="1">
          <mxGeometry y="26" width="160" height="88" as="geometry" />
        </mxCell>
        <mxCell id="uRmLgOpoL4X1B9jV7of--18" value="" style="line;strokeWidth=1;fillColor=none;align=left;verticalAlign=middle;spacingTop=-1;spacingLeft=3;spacingRight=3;rotatable=0;labelPosition=right;points=[];portConstraint=eastwest;strokeColor=inherit;" parent="uRmLgOpoL4X1B9jV7of--16" vertex="1">
          <mxGeometry y="114" width="160" height="8" as="geometry" />
        </mxCell>
        <mxCell id="uRmLgOpoL4X1B9jV7of--19" value="+touch detect&lt;br&gt;+move(dir:char): void&lt;br&gt;+display():void" style="text;strokeColor=none;fillColor=none;align=left;verticalAlign=top;spacingLeft=4;spacingRight=4;overflow=hidden;rotatable=0;points=[[0,0.5],[1,0.5]];portConstraint=eastwest;whiteSpace=wrap;html=1;" parent="uRmLgOpoL4X1B9jV7of--16" vertex="1">
          <mxGeometry y="122" width="160" height="58" as="geometry" />
        </mxCell>
        <mxCell id="uRmLgOpoL4X1B9jV7of--20" value="Food" style="swimlane;fontStyle=1;align=center;verticalAlign=top;childLayout=stackLayout;horizontal=1;startSize=26;horizontalStack=0;resizeParent=1;resizeParentMax=0;resizeLast=0;collapsible=1;marginBottom=0;whiteSpace=wrap;html=1;" parent="1" vertex="1">
          <mxGeometry x="645" y="560" width="160" height="200" as="geometry" />
        </mxCell>
        <mxCell id="uRmLgOpoL4X1B9jV7of--21" value="+powerup:int&lt;br&gt;+rules reversed:int&lt;br&gt;+random():" style="text;strokeColor=none;fillColor=none;align=left;verticalAlign=top;spacingLeft=4;spacingRight=4;overflow=hidden;rotatable=0;points=[[0,0.5],[1,0.5]];portConstraint=eastwest;whiteSpace=wrap;html=1;" parent="uRmLgOpoL4X1B9jV7of--20" vertex="1">
          <mxGeometry y="26" width="160" height="74" as="geometry" />
        </mxCell>
        <mxCell id="uRmLgOpoL4X1B9jV7of--22" value="" style="line;strokeWidth=1;fillColor=none;align=left;verticalAlign=middle;spacingTop=-1;spacingLeft=3;spacingRight=3;rotatable=0;labelPosition=right;points=[];portConstraint=eastwest;strokeColor=inherit;" parent="uRmLgOpoL4X1B9jV7of--20" vertex="1">
          <mxGeometry y="100" width="160" height="8" as="geometry" />
        </mxCell>
        <mxCell id="uRmLgOpoL4X1B9jV7of--23" value="+display():void&lt;br&gt;+random():int (locatin)" style="text;strokeColor=none;fillColor=none;align=left;verticalAlign=top;spacingLeft=4;spacingRight=4;overflow=hidden;rotatable=0;points=[[0,0.5],[1,0.5]];portConstraint=eastwest;whiteSpace=wrap;html=1;" parent="uRmLgOpoL4X1B9jV7of--20" vertex="1">
          <mxGeometry y="108" width="160" height="92" as="geometry" />
        </mxCell>
        <mxCell id="uRmLgOpoL4X1B9jV7of--24" value="Dots" style="swimlane;fontStyle=1;align=center;verticalAlign=top;childLayout=stackLayout;horizontal=1;startSize=26;horizontalStack=0;resizeParent=1;resizeParentMax=0;resizeLast=0;collapsible=1;marginBottom=0;whiteSpace=wrap;html=1;" parent="1" vertex="1">
          <mxGeometry x="530" y="830" width="160" height="110" as="geometry" />
        </mxCell>
        <mxCell id="uRmLgOpoL4X1B9jV7of--25" value="+score:int&lt;br&gt;" style="text;strokeColor=none;fillColor=none;align=left;verticalAlign=top;spacingLeft=4;spacingRight=4;overflow=hidden;rotatable=0;points=[[0,0.5],[1,0.5]];portConstraint=eastwest;whiteSpace=wrap;html=1;" parent="uRmLgOpoL4X1B9jV7of--24" vertex="1">
          <mxGeometry y="26" width="160" height="26" as="geometry" />
        </mxCell>
        <mxCell id="uRmLgOpoL4X1B9jV7of--26" value="" style="line;strokeWidth=1;fillColor=none;align=left;verticalAlign=middle;spacingTop=-1;spacingLeft=3;spacingRight=3;rotatable=0;labelPosition=right;points=[];portConstraint=eastwest;strokeColor=inherit;" parent="uRmLgOpoL4X1B9jV7of--24" vertex="1">
          <mxGeometry y="52" width="160" height="8" as="geometry" />
        </mxCell>
        <mxCell id="uRmLgOpoL4X1B9jV7of--27" value="+ random():&amp;nbsp;&lt;br&gt;display();void&lt;br&gt;" style="text;strokeColor=none;fillColor=none;align=left;verticalAlign=top;spacingLeft=4;spacingRight=4;overflow=hidden;rotatable=0;points=[[0,0.5],[1,0.5]];portConstraint=eastwest;whiteSpace=wrap;html=1;" parent="uRmLgOpoL4X1B9jV7of--24" vertex="1">
          <mxGeometry y="60" width="160" height="50" as="geometry" />
        </mxCell>
        <mxCell id="uRmLgOpoL4X1B9jV7of--30" style="edgeStyle=orthogonalEdgeStyle;rounded=0;orthogonalLoop=1;jettySize=auto;html=1;" parent="1" source="uRmLgOpoL4X1B9jV7of--9" target="uRmLgOpoL4X1B9jV7of--5" edge="1">
          <mxGeometry relative="1" as="geometry" />
        </mxCell>
        <mxCell id="uRmLgOpoL4X1B9jV7of--32" style="edgeStyle=orthogonalEdgeStyle;rounded=0;orthogonalLoop=1;jettySize=auto;html=1;entryX=1.013;entryY=0.142;entryDx=0;entryDy=0;entryPerimeter=0;" parent="1" source="uRmLgOpoL4X1B9jV7of--17" target="uRmLgOpoL4X1B9jV7of--5" edge="1">
          <mxGeometry relative="1" as="geometry" />
        </mxCell>
        <mxCell id="uRmLgOpoL4X1B9jV7of--33" style="edgeStyle=orthogonalEdgeStyle;rounded=0;orthogonalLoop=1;jettySize=auto;html=1;entryX=1;entryY=0.318;entryDx=0;entryDy=0;entryPerimeter=0;" parent="1" source="uRmLgOpoL4X1B9jV7of--21" target="uRmLgOpoL4X1B9jV7of--5" edge="1">
          <mxGeometry relative="1" as="geometry" />
        </mxCell>
        <mxCell id="uRmLgOpoL4X1B9jV7of--34" style="edgeStyle=orthogonalEdgeStyle;rounded=0;orthogonalLoop=1;jettySize=auto;html=1;entryX=1;entryY=0.804;entryDx=0;entryDy=0;entryPerimeter=0;" parent="1" source="uRmLgOpoL4X1B9jV7of--24" target="uRmLgOpoL4X1B9jV7of--5" edge="1">
          <mxGeometry relative="1" as="geometry" />
        </mxCell>
        <mxCell id="uRmLgOpoL4X1B9jV7of--35" style="edgeStyle=orthogonalEdgeStyle;rounded=0;orthogonalLoop=1;jettySize=auto;html=1;exitX=0;exitY=0.5;exitDx=0;exitDy=0;entryX=0.006;entryY=0.236;entryDx=0;entryDy=0;entryPerimeter=0;" parent="1" source="uRmLgOpoL4X1B9jV7of--13" target="uRmLgOpoL4X1B9jV7of--5" edge="1">
          <mxGeometry relative="1" as="geometry" />
        </mxCell>
        <mxCell id="uRmLgOpoL4X1B9jV7of--36" value="BD" style="swimlane;fontStyle=1;align=center;verticalAlign=top;childLayout=stackLayout;horizontal=1;startSize=26;horizontalStack=0;resizeParent=1;resizeParentMax=0;resizeLast=0;collapsible=1;marginBottom=0;whiteSpace=wrap;html=1;" parent="1" vertex="1">
          <mxGeometry x="150" y="744" width="160" height="110" as="geometry" />
        </mxCell>
        <mxCell id="uRmLgOpoL4X1B9jV7of--37" value="+score:int (doubled)" style="text;strokeColor=none;fillColor=none;align=left;verticalAlign=top;spacingLeft=4;spacingRight=4;overflow=hidden;rotatable=0;points=[[0,0.5],[1,0.5]];portConstraint=eastwest;whiteSpace=wrap;html=1;" parent="uRmLgOpoL4X1B9jV7of--36" vertex="1">
          <mxGeometry y="26" width="160" height="26" as="geometry" />
        </mxCell>
        <mxCell id="uRmLgOpoL4X1B9jV7of--38" value="" style="line;strokeWidth=1;fillColor=none;align=left;verticalAlign=middle;spacingTop=-1;spacingLeft=3;spacingRight=3;rotatable=0;labelPosition=right;points=[];portConstraint=eastwest;strokeColor=inherit;" parent="uRmLgOpoL4X1B9jV7of--36" vertex="1">
          <mxGeometry y="52" width="160" height="8" as="geometry" />
        </mxCell>
        <mxCell id="uRmLgOpoL4X1B9jV7of--39" value="+random():&lt;br&gt;+display():void" style="text;strokeColor=none;fillColor=none;align=left;verticalAlign=top;spacingLeft=4;spacingRight=4;overflow=hidden;rotatable=0;points=[[0,0.5],[1,0.5]];portConstraint=eastwest;whiteSpace=wrap;html=1;" parent="uRmLgOpoL4X1B9jV7of--36" vertex="1">
          <mxGeometry y="60" width="160" height="50" as="geometry" />
        </mxCell>
        <mxCell id="uRmLgOpoL4X1B9jV7of--42" value="Walls" style="swimlane;fontStyle=1;align=center;verticalAlign=top;childLayout=stackLayout;horizontal=1;startSize=26;horizontalStack=0;resizeParent=1;resizeParentMax=0;resizeLast=0;collapsible=1;marginBottom=0;whiteSpace=wrap;html=1;" parent="1" vertex="1">
          <mxGeometry x="250" y="860" width="160" height="120" as="geometry" />
        </mxCell>
        <mxCell id="uRmLgOpoL4X1B9jV7of--43" value="+ rect():" style="text;strokeColor=none;fillColor=none;align=left;verticalAlign=top;spacingLeft=4;spacingRight=4;overflow=hidden;rotatable=0;points=[[0,0.5],[1,0.5]];portConstraint=eastwest;whiteSpace=wrap;html=1;" parent="uRmLgOpoL4X1B9jV7of--42" vertex="1">
          <mxGeometry y="26" width="160" height="26" as="geometry" />
        </mxCell>
        <mxCell id="uRmLgOpoL4X1B9jV7of--44" value="" style="line;strokeWidth=1;fillColor=none;align=left;verticalAlign=middle;spacingTop=-1;spacingLeft=3;spacingRight=3;rotatable=0;labelPosition=right;points=[];portConstraint=eastwest;strokeColor=inherit;" parent="uRmLgOpoL4X1B9jV7of--42" vertex="1">
          <mxGeometry y="52" width="160" height="8" as="geometry" />
        </mxCell>
        <mxCell id="uRmLgOpoL4X1B9jV7of--45" value="+edge detect:&lt;br&gt;+display():void" style="text;strokeColor=none;fillColor=none;align=left;verticalAlign=top;spacingLeft=4;spacingRight=4;overflow=hidden;rotatable=0;points=[[0,0.5],[1,0.5]];portConstraint=eastwest;whiteSpace=wrap;html=1;" parent="uRmLgOpoL4X1B9jV7of--42" vertex="1">
          <mxGeometry y="60" width="160" height="60" as="geometry" />
        </mxCell>
        <mxCell id="uRmLgOpoL4X1B9jV7of--47" style="edgeStyle=orthogonalEdgeStyle;rounded=0;orthogonalLoop=1;jettySize=auto;html=1;entryX=0.006;entryY=0.98;entryDx=0;entryDy=0;entryPerimeter=0;" parent="1" source="uRmLgOpoL4X1B9jV7of--42" target="uRmLgOpoL4X1B9jV7of--5" edge="1">
          <mxGeometry relative="1" as="geometry" />
        </mxCell>
        <mxCell id="uRmLgOpoL4X1B9jV7of--48" style="edgeStyle=orthogonalEdgeStyle;rounded=0;orthogonalLoop=1;jettySize=auto;html=1;entryX=0.013;entryY=0.804;entryDx=0;entryDy=0;entryPerimeter=0;" parent="1" source="uRmLgOpoL4X1B9jV7of--36" target="uRmLgOpoL4X1B9jV7of--5" edge="1">
          <mxGeometry relative="1" as="geometry" />
        </mxCell>
      </root>
    </mxGraphModel>
  </diagram>
</mxfile>
